<svg width="538" height="521" viewBox="0 0 538 521" fill="none" xmlns="http://www.w3.org/2000/svg">
<mask id="mask0" mask-type="alpha" maskUnits="userSpaceOnUse" x="3" y="53" width="533" height="468">
<path fill-rule="evenodd" clip-rule="evenodd" d="M3.00064 53.948H535.615V520.035H3.00064V53.948Z" fill="white"/>
</mask>
<g mask="url(#mask0)">
<path fill-rule="evenodd" clip-rule="evenodd" d="M502.715 308.198C501.065 310.848 499.419 313.453 497.664 316.048C482.314 339.103 463.264 361.248 442.169 381.603C441.215 382.548 440.215 383.503 439.22 384.448C436.215 387.298 433.115 390.153 430.014 392.898C424.669 397.803 419.164 402.548 413.564 407.098C410.614 409.598 407.569 412.053 404.564 414.448C369.669 442.053 332.37 466.203 295.615 484.398C284.22 490.103 272.819 495.198 261.569 499.598C202.864 522.853 148.219 528.303 110.52 505.248C98.5145 497.948 88.2645 487.748 80.1145 474.303C78.8145 472.148 77.5145 469.998 76.2145 467.853C64.1695 447.698 52.6645 427.453 42.5645 407.098C40.1645 402.348 37.9195 397.653 35.7195 392.898C-0.930504 314.148 -14.8855 234.448 37.0645 156.048C57.2645 125.553 90.4195 101.803 130.215 84.998C141.57 80.153 153.414 75.948 165.719 72.298C171.77 70.398 177.865 68.748 184.115 67.253C191.969 65.253 199.964 63.503 208.064 61.998C214.27 60.803 220.464 59.753 226.714 58.848C229.314 58.503 231.914 58.153 234.514 57.798C252.964 55.453 271.664 54.148 290.27 54.003C292.715 53.948 295.164 53.948 297.569 53.948C308.819 54.003 319.965 54.448 330.965 55.353C333.915 55.553 336.864 55.803 339.814 56.148C395.964 61.603 447.465 77.698 482.465 104.403C490.115 110.253 496.969 116.548 502.914 123.403C504.02 124.653 505.069 125.903 506.064 127.198C506.414 127.598 506.719 127.998 507.064 128.403C514.314 137.498 520.115 146.903 524.47 156.503C546.72 204.953 533.715 258.398 502.715 308.198Z" fill="#FDE6D6"/>
</g>
<path fill-rule="evenodd" clip-rule="evenodd" d="M389.54 454.638C376.05 468.778 366.445 488.998 380.955 500.978C397.16 514.353 430.585 511.248 447.865 486.013C458.91 469.893 464.755 444.408 452.52 430.113C442.045 417.873 406.09 437.288 389.54 454.638Z" fill="#E8E5EA"/>
<path fill-rule="evenodd" clip-rule="evenodd" d="M193.366 450.952C190.016 451.097 186.616 451.202 183.316 451.202C182.966 451.202 182.716 451.497 182.716 451.852C182.716 452.147 182.966 452.452 183.316 452.452C186.666 452.452 190.016 452.347 193.416 452.202C193.766 452.202 194.016 451.897 194.016 451.552C193.966 451.251 193.666 450.952 193.366 450.952ZM173.316 451.051C169.916 450.952 166.516 450.751 163.316 450.551C162.866 450.501 162.666 450.751 162.616 451.097C162.616 451.452 162.866 451.751 163.216 451.801C166.466 452.001 169.866 452.202 173.266 452.301C173.616 452.301 173.916 452.051 173.916 451.697C173.916 451.352 173.666 451.051 173.316 451.051ZM213.366 449.501C210.016 449.847 206.666 450.151 203.366 450.401C203.016 450.401 202.766 450.697 202.766 451.051C202.816 451.401 203.066 451.651 203.416 451.651H203.466C206.766 451.401 210.116 451.097 213.466 450.751C213.816 450.697 214.066 450.401 214.066 450.047C214.016 449.702 213.716 449.447 213.366 449.501ZM153.316 449.551C150.016 449.197 146.666 448.702 143.416 448.146C143.066 448.102 142.766 448.301 142.666 448.651C142.616 448.996 142.866 449.301 143.216 449.352C146.466 449.952 149.816 450.401 153.166 450.801H153.266C153.566 450.801 153.816 450.602 153.866 450.246C153.916 449.901 153.666 449.597 153.316 449.551ZM233.266 446.852C229.866 447.347 226.566 447.852 223.316 448.301C222.966 448.347 222.716 448.651 222.766 448.996C222.816 449.301 223.116 449.551 223.416 449.551H223.466C226.716 449.102 230.066 448.597 233.466 448.051C233.766 448.001 234.016 447.702 233.966 447.347C233.916 447.001 233.616 446.801 233.266 446.852ZM133.616 446.151C130.316 445.401 127.066 444.551 123.916 443.651C123.566 443.551 123.216 443.702 123.116 444.051C123.016 444.396 123.216 444.751 123.566 444.847C126.616 445.697 129.716 446.551 132.866 447.301C133.016 447.347 133.166 447.347 133.316 447.401H133.466C133.566 447.401 133.666 447.347 133.766 447.301L133.816 447.251C133.966 447.202 134.016 447.051 134.066 446.896C134.116 446.602 133.916 446.251 133.616 446.151ZM252.966 443.102C249.716 443.797 246.366 444.501 243.216 445.102H243.116C242.766 445.151 242.566 445.447 242.616 445.802C242.666 446.097 242.966 446.297 243.266 446.297H243.366C245.616 445.897 247.916 445.447 250.216 444.952C251.216 444.751 252.216 444.552 253.216 444.302C253.566 444.251 253.766 443.901 253.716 443.552C253.616 443.251 253.316 443.001 252.966 443.102ZM272.466 438.347C269.316 439.196 266.066 440.046 262.766 440.847C262.416 440.951 262.216 441.251 262.316 441.601C262.366 441.896 262.616 442.097 262.916 442.097C262.966 442.097 263.016 442.097 263.066 442.051C266.366 441.251 269.666 440.401 272.816 439.597C273.116 439.501 273.316 439.151 273.266 438.796C273.166 438.501 272.816 438.301 272.466 438.347ZM114.416 440.446C113.316 440.046 112.266 439.646 111.166 439.196C109.116 438.396 107.166 437.501 105.216 436.601C104.916 436.451 104.516 436.601 104.366 436.896C104.216 437.201 104.366 437.601 104.666 437.746C106.766 438.751 108.966 439.646 111.166 440.551C112.066 440.951 113.016 441.296 113.966 441.651H114.216C114.466 441.651 114.716 441.496 114.816 441.251C114.916 440.951 114.766 440.601 114.416 440.446ZM291.716 432.746C291.066 432.947 290.416 433.197 289.716 433.396C287.266 434.151 284.716 434.952 282.166 435.697C281.816 435.802 281.616 436.097 281.716 436.452C281.816 436.751 282.066 436.896 282.316 436.896H282.516C285.016 436.151 287.566 435.401 289.966 434.646C290.716 434.396 291.416 434.197 292.116 433.952C292.416 433.852 292.616 433.501 292.516 433.146C292.416 432.852 292.066 432.651 291.716 432.746ZM96.316 432.001L95.966 431.751C93.166 430.152 90.466 428.452 87.866 426.652C87.616 426.452 87.216 426.552 87.016 426.852C86.816 427.097 86.916 427.501 87.166 427.702C89.766 429.447 92.516 431.202 95.316 432.852L95.716 433.102C95.816 433.147 95.916 433.147 96.016 433.147C96.266 433.147 96.466 433.052 96.566 432.852C96.766 432.547 96.616 432.147 96.316 432.001ZM310.716 426.296C307.566 427.451 304.366 428.551 301.266 429.646C300.916 429.751 300.766 430.102 300.866 430.401C300.966 430.696 301.166 430.847 301.466 430.847C301.516 430.847 301.566 430.847 301.666 430.801C304.816 429.751 307.966 428.597 311.116 427.451C311.466 427.347 311.616 427.001 311.516 426.651C311.366 426.296 310.966 426.151 310.716 426.296ZM330.216 419.302C330.066 418.952 329.716 418.797 329.416 418.952C326.366 420.202 323.216 421.497 320.066 422.702C319.766 422.852 319.616 423.197 319.716 423.552C319.816 423.797 320.066 423.952 320.316 423.952C320.366 423.952 320.466 423.902 320.566 423.902C323.716 422.652 326.866 421.352 329.866 420.102C330.216 419.952 330.366 419.597 330.216 419.302ZM79.866 420.697C78.716 419.801 77.566 418.852 76.516 417.947C75.066 416.697 73.716 415.401 72.366 414.151C72.116 413.901 71.716 413.901 71.466 414.151C71.216 414.396 71.216 414.801 71.466 415.046C73.066 416.551 74.716 418.051 76.466 419.501C77.316 420.246 78.166 421.001 79.066 421.697C79.166 421.801 79.316 421.852 79.466 421.852C79.666 421.852 79.816 421.751 79.966 421.602C80.166 421.352 80.116 420.951 79.866 420.697ZM348.616 411.097C348.466 410.751 348.066 410.647 347.766 410.802C344.866 412.147 341.916 413.552 338.616 415.001C338.316 415.102 338.166 415.501 338.316 415.802C338.416 416.052 338.666 416.202 338.866 416.202C338.966 416.202 339.066 416.151 339.116 416.097C342.416 414.647 345.416 413.302 348.316 411.897C348.616 411.751 348.766 411.401 348.616 411.097ZM65.466 406.896C63.266 404.396 61.166 401.751 59.266 399.102C59.066 398.797 58.666 398.751 58.366 398.952C58.116 399.151 58.066 399.551 58.266 399.801C60.016 402.301 61.966 404.751 63.966 407.097C64.166 407.301 64.316 407.547 64.516 407.746C64.616 407.852 64.816 407.947 64.966 407.947C65.116 407.947 65.266 407.901 65.416 407.801C65.616 407.602 65.666 407.347 65.566 407.097C65.566 407.001 65.516 406.947 65.466 406.896ZM366.566 402.051C366.416 401.751 366.016 401.651 365.716 401.801C362.866 403.347 359.816 404.901 356.816 406.401C356.516 406.551 356.416 406.852 356.516 407.097C356.466 407.146 356.516 407.201 356.516 407.251C356.616 407.451 356.866 407.602 357.066 407.602C357.166 407.602 357.266 407.546 357.366 407.501C357.616 407.347 357.916 407.251 358.166 407.097C360.966 405.751 363.666 404.301 366.316 402.901C366.616 402.746 366.716 402.347 366.566 402.051ZM384.066 392.202C383.916 391.896 383.516 391.801 383.216 391.947C382.666 392.251 382.166 392.602 381.616 392.901C379.316 394.301 376.966 395.646 374.516 397.001C374.216 397.146 374.116 397.547 374.316 397.852C374.416 398.051 374.616 398.146 374.866 398.146C374.966 398.146 375.066 398.146 375.166 398.102C378.116 396.401 381.066 394.702 383.866 393.051C383.916 393.001 383.966 392.947 384.016 392.901C384.216 392.702 384.216 392.452 384.066 392.202ZM53.866 390.697C52.166 387.852 50.616 384.847 49.266 381.852C49.116 381.551 48.716 381.401 48.416 381.551C48.116 381.697 47.966 382.051 48.116 382.401C49.516 385.401 51.066 388.451 52.766 391.352C52.866 391.551 53.066 391.651 53.316 391.651C53.416 391.651 53.516 391.602 53.616 391.551C53.916 391.401 54.016 391.001 53.866 390.697ZM401.116 381.602C401.116 381.552 401.066 381.497 401.066 381.452C400.866 381.152 400.466 381.097 400.216 381.251C400.016 381.352 399.866 381.497 399.666 381.602C398.266 382.547 396.766 383.552 395.316 384.447C394.166 385.247 392.966 386.001 391.816 386.751C391.516 386.897 391.416 387.302 391.616 387.602C391.716 387.802 391.916 387.902 392.116 387.902C392.216 387.902 392.366 387.852 392.466 387.802C394.216 386.697 395.916 385.602 397.616 384.447C398.716 383.751 399.816 383.052 400.916 382.302C401.116 382.147 401.216 381.852 401.116 381.602ZM417.416 369.801C417.216 369.501 416.816 369.446 416.566 369.646C413.916 371.651 411.166 373.651 408.466 375.601C408.166 375.801 408.116 376.151 408.316 376.451C408.466 376.601 408.616 376.696 408.816 376.696C408.966 376.696 409.066 376.696 409.216 376.601C411.916 374.646 414.666 372.651 417.316 370.646C417.616 370.446 417.666 370.046 417.416 369.801ZM42.566 363.051C42.466 362.701 42.116 362.501 41.766 362.602C41.466 362.701 41.266 363.051 41.316 363.347C42.216 366.651 43.216 369.901 44.316 373.001C44.416 373.301 44.616 373.451 44.916 373.451C44.966 373.451 45.016 373.451 45.116 373.396C45.416 373.301 45.616 372.946 45.466 372.601C44.366 369.501 43.416 366.296 42.566 363.051ZM433.066 357.097C432.816 356.852 432.416 356.852 432.166 357.052C429.716 359.152 427.166 361.297 424.466 363.501C424.216 363.702 424.166 364.102 424.366 364.352C424.516 364.501 424.666 364.597 424.866 364.597C425.016 364.597 425.116 364.552 425.266 364.447C427.966 362.302 430.566 360.102 432.966 358.001C433.266 357.747 433.266 357.402 433.066 357.097ZM39.016 343.347C39.016 343.051 38.716 342.746 38.366 342.801C38.016 342.852 37.766 343.146 37.816 343.501C38.166 346.896 38.616 350.246 39.166 353.501C39.216 353.796 39.516 353.996 39.816 353.996H39.916C40.266 353.951 40.466 353.651 40.416 353.301C39.866 350.046 39.366 346.751 39.016 343.347ZM447.766 343.452C447.516 343.197 447.116 343.197 446.866 343.452C444.566 345.751 442.116 348.102 439.666 350.401C439.416 350.602 439.366 351.001 439.616 351.251C439.716 351.401 439.916 351.452 440.066 351.452C440.216 351.452 440.366 351.401 440.516 351.297C442.966 348.996 445.416 346.651 447.766 344.302C448.016 344.052 448.016 343.651 447.766 343.452ZM461.316 328.597C461.066 328.347 460.666 328.396 460.416 328.651C458.366 331.151 456.116 333.702 453.816 336.202C453.566 336.452 453.616 336.852 453.866 337.097C453.966 337.202 454.116 337.251 454.266 337.251C454.466 337.251 454.616 337.146 454.716 337.051C457.066 334.501 459.316 331.947 461.416 329.447C461.616 329.197 461.566 328.797 461.316 328.597ZM38.266 327.852C38.266 326.401 38.266 324.901 38.316 323.396C38.316 323.051 38.066 322.746 37.716 322.746C37.366 322.746 37.066 323.001 37.066 323.347C37.016 324.847 37.016 326.352 37.016 327.852C37.016 329.751 37.066 331.602 37.116 333.451C37.116 333.751 37.416 334.051 37.716 334.051H37.766C38.116 333.996 38.366 333.751 38.366 333.396C38.316 331.551 38.266 329.701 38.266 327.852ZM473.416 312.602C473.116 312.401 472.766 312.452 472.566 312.746C470.716 315.447 468.716 318.197 466.716 320.847C466.466 321.151 466.566 321.551 466.816 321.751C466.916 321.801 467.066 321.852 467.216 321.852C467.366 321.852 467.566 321.801 467.716 321.602C469.716 318.952 471.716 316.202 473.566 313.452C473.766 313.146 473.716 312.746 473.416 312.602ZM39.416 302.747C39.016 302.652 38.766 302.902 38.716 303.251C38.266 306.652 37.916 310.001 37.616 313.302C37.616 313.652 37.866 313.952 38.216 313.952H38.266C38.566 313.952 38.866 313.702 38.866 313.397C39.166 310.102 39.516 306.751 39.966 303.452C40.016 303.102 39.766 302.747 39.416 302.747ZM483.666 295.302C483.366 295.202 483.016 295.302 482.816 295.602C481.366 298.452 479.716 301.402 477.966 304.302C477.766 304.597 477.866 305.001 478.166 305.202C478.266 305.247 478.366 305.247 478.466 305.247C478.716 305.247 478.916 305.152 479.016 304.952C480.816 302.001 482.466 299.052 483.966 296.152C484.116 295.847 483.966 295.447 483.666 295.302ZM43.016 282.947C42.666 282.901 42.366 283.102 42.266 283.451C41.566 286.751 40.866 290.046 40.266 293.301C40.216 293.651 40.466 293.951 40.766 294.051H40.916C41.216 294.051 41.466 293.852 41.516 293.551C42.116 290.301 42.766 287.001 43.516 283.701C43.566 283.347 43.366 283.051 43.016 282.947ZM491.566 276.852C491.216 276.751 490.866 276.897 490.766 277.251C489.716 280.302 488.466 283.452 487.116 286.552C486.966 286.897 487.116 287.251 487.466 287.401C487.516 287.401 487.616 287.452 487.716 287.452C487.916 287.452 488.166 287.302 488.266 287.052C489.616 283.901 490.866 280.751 491.916 277.651C492.066 277.347 491.866 277.001 491.566 276.852ZM48.216 263.551C47.916 263.452 47.566 263.651 47.466 263.996C46.466 267.202 45.516 270.447 44.666 273.651C44.616 273.996 44.816 274.352 45.116 274.396C45.166 274.447 45.216 274.447 45.316 274.447C45.566 274.447 45.816 274.251 45.916 273.996C46.716 270.801 47.666 267.547 48.666 264.352C48.766 263.996 48.566 263.651 48.216 263.551ZM496.866 257.501C496.516 257.402 496.216 257.652 496.116 257.947C495.416 261.152 494.566 264.397 493.666 267.702C493.616 268.001 493.766 268.347 494.116 268.452C494.166 268.452 494.216 268.501 494.266 268.501C494.566 268.501 494.816 268.302 494.866 268.001C495.766 264.751 496.616 261.452 497.366 258.251C497.416 257.902 497.216 257.547 496.866 257.501ZM54.766 244.552C54.416 244.447 54.066 244.597 53.966 244.902C52.766 248.052 51.616 251.251 50.566 254.397C50.416 254.701 50.616 255.046 50.916 255.201H51.116C51.416 255.201 51.616 255.046 51.716 254.802C52.816 251.652 53.966 248.451 55.116 245.352C55.216 245.046 55.066 244.647 54.766 244.552ZM500.466 237.702C500.166 237.652 499.816 237.902 499.766 238.251C499.316 241.552 498.766 244.847 498.166 248.147C498.116 248.501 498.316 248.796 498.666 248.902H498.766C499.066 248.902 499.316 248.702 499.416 248.397C500.016 245.046 500.566 241.697 501.016 238.452C501.016 238.102 500.816 237.747 500.466 237.702ZM62.366 225.952C62.066 225.802 61.716 225.952 61.566 226.297C60.216 229.352 58.866 232.452 57.616 235.552C57.516 235.847 57.666 236.251 57.966 236.352C58.066 236.402 58.116 236.402 58.216 236.402C58.466 236.402 58.666 236.251 58.766 236.001C60.016 232.947 61.366 229.847 62.716 226.802C62.866 226.452 62.716 226.097 62.366 225.952ZM502.216 217.701C501.916 217.746 501.616 217.946 501.566 218.302C501.416 221.651 501.216 225.001 500.916 228.302C500.866 228.651 501.116 228.951 501.466 228.996H501.516C501.816 228.996 502.116 228.751 502.116 228.396C502.466 225.101 502.666 221.751 502.816 218.347C502.866 218.052 502.566 217.746 502.216 217.701ZM71.016 207.802C70.716 207.652 70.316 207.747 70.166 208.052C68.666 211.052 67.166 214.102 65.766 217.097C65.616 217.451 65.766 217.802 66.066 217.947C66.166 218.001 66.216 218.001 66.316 218.001C66.566 218.001 66.766 217.902 66.866 217.652C68.316 214.647 69.816 211.602 71.316 208.652C71.466 208.302 71.316 207.947 71.016 207.802ZM502.816 198.246C502.816 197.901 502.516 197.651 502.166 197.651C501.816 197.651 501.566 197.951 501.566 198.301C501.716 201.601 501.816 204.951 501.816 208.301C501.816 208.651 502.116 208.951 502.416 208.951C502.766 208.951 503.066 208.651 503.066 208.301C503.066 204.951 502.966 201.551 502.816 198.246ZM80.516 190.051C80.216 189.901 79.816 190.001 79.666 190.301C77.966 193.246 76.366 196.251 74.816 199.151C74.666 199.451 74.766 199.801 75.066 199.951C75.166 200.001 75.266 200.051 75.366 200.051C75.566 200.051 75.816 199.951 75.916 199.701C77.466 196.851 79.066 193.851 80.766 190.901C80.916 190.601 80.816 190.251 80.516 190.051ZM500.916 178.151C500.866 177.802 500.566 177.552 500.216 177.651C499.866 177.701 499.666 178.001 499.716 178.347C500.166 181.651 500.566 185.001 500.866 188.302C500.916 188.651 501.166 188.851 501.516 188.851H501.566C501.916 188.851 502.166 188.552 502.116 188.201C501.816 184.851 501.416 181.501 500.916 178.151ZM90.766 172.802C90.516 172.602 90.116 172.702 89.916 173.001C88.166 175.847 86.416 178.702 84.716 181.602C84.516 181.902 84.616 182.251 84.916 182.452C85.016 182.501 85.116 182.552 85.216 182.552C85.466 182.552 85.666 182.452 85.766 182.251C87.466 179.352 89.216 176.501 90.966 173.652C91.166 173.347 91.066 173.001 90.766 172.802ZM499.216 167.852H499.166C498.616 164.702 497.866 161.552 497.116 158.347C497.066 158.001 496.716 157.802 496.366 157.902C496.066 157.952 495.816 158.302 495.916 158.652C496.666 161.702 497.316 164.751 497.916 167.802C497.966 168.001 498.016 168.247 498.066 168.452C498.116 168.751 498.366 168.952 498.666 168.952H498.766C499.116 168.852 499.316 168.552 499.266 168.202C499.266 168.102 499.216 167.952 499.216 167.852ZM102.016 155.651C101.766 155.451 101.366 155.501 101.166 155.802L100.916 156.151C99.066 158.901 97.166 161.701 95.366 164.496C95.166 164.802 95.216 165.201 95.516 165.401C95.616 165.451 95.766 165.501 95.866 165.501C96.066 165.501 96.266 165.401 96.366 165.201C98.216 162.401 100.066 159.597 101.966 156.852L102.216 156.501C102.366 156.251 102.316 155.847 102.016 155.651ZM493.816 146.351C493.066 143.851 492.266 141.401 491.466 139.001C491.366 138.651 490.966 138.501 490.666 138.601C490.316 138.751 490.166 139.101 490.266 139.401C491.216 142.151 492.116 144.951 492.966 147.801C493.066 148.201 493.216 148.551 493.316 148.951C493.416 149.251 493.666 149.401 493.916 149.401H494.116C494.416 149.301 494.616 148.951 494.516 148.601C494.316 147.851 494.066 147.096 493.816 146.351ZM113.566 139.201C113.266 139.001 112.866 139.052 112.666 139.352C110.766 142.052 108.816 144.751 106.866 147.552C106.666 147.802 106.766 148.201 107.016 148.401C107.166 148.501 107.266 148.501 107.416 148.501C107.566 148.501 107.766 148.451 107.916 148.246C109.816 145.501 111.766 142.751 113.716 140.052C113.916 139.751 113.816 139.402 113.566 139.201ZM125.466 123.001C125.166 122.802 124.816 122.852 124.566 123.102C122.566 125.747 120.566 128.451 118.566 131.201C118.366 131.451 118.466 131.852 118.716 132.052C118.816 132.152 118.966 132.201 119.066 132.201C119.266 132.201 119.466 132.097 119.616 131.902C121.566 129.201 123.566 126.501 125.566 123.852C125.766 123.602 125.716 123.202 125.466 123.001ZM487.916 129.552C487.616 128.802 487.266 128.001 486.916 127.201C486.766 126.802 486.566 126.351 486.366 125.902C485.616 124.052 484.766 122.152 483.916 120.302C483.766 120.001 483.416 119.851 483.066 120.001C482.766 120.152 482.616 120.501 482.766 120.802C483.366 122.097 483.966 123.402 484.516 124.701C484.916 125.552 485.266 126.402 485.566 127.201C485.966 128.052 486.316 128.852 486.616 129.701C486.666 129.802 486.716 129.901 486.766 130.001C486.866 130.251 487.066 130.401 487.316 130.401C487.416 130.401 487.466 130.401 487.566 130.352C487.816 130.251 488.016 130.001 487.966 129.701C487.966 129.651 487.966 129.597 487.916 129.552ZM137.816 107.097C137.516 106.902 137.166 106.951 136.916 107.201C134.866 109.701 132.916 112.302 130.916 114.851C130.866 114.952 130.766 115.001 130.716 115.101C130.466 115.402 130.516 115.802 130.816 116.001C130.916 116.101 131.066 116.152 131.166 116.152C131.316 116.152 131.466 116.101 131.566 116.001C131.616 115.952 131.616 115.951 131.666 115.902C133.766 113.201 135.816 110.601 137.916 108.001C138.116 107.751 138.066 107.351 137.816 107.097ZM479.516 111.251C478.866 110.052 478.266 108.902 477.616 107.751C476.666 105.952 475.666 104.202 474.616 102.452C474.466 102.152 474.066 102.052 473.766 102.202C473.466 102.402 473.366 102.751 473.566 103.052C474.616 104.852 475.616 106.702 476.666 108.602C477.216 109.652 477.816 110.747 478.366 111.852C478.516 112.052 478.716 112.152 478.916 112.152C479.016 112.152 479.116 112.152 479.216 112.097C479.516 111.952 479.666 111.552 479.516 111.251ZM150.666 91.6515C150.366 91.4515 150.016 91.5015 149.766 91.7515C147.616 94.2515 145.416 96.8015 143.266 99.4015C143.066 99.7015 143.066 100.101 143.366 100.301C143.466 100.401 143.616 100.451 143.766 100.451C143.916 100.451 144.116 100.351 144.216 100.201C146.366 97.6015 148.566 95.0515 150.716 92.5515C150.916 92.3015 150.916 91.9015 150.666 91.6515ZM469.316 93.8515C467.516 91.0515 465.616 88.3015 463.666 85.5515C463.466 85.2515 463.066 85.2015 462.766 85.4015C462.516 85.6015 462.416 86.0015 462.616 86.3015C464.566 89.0015 466.516 91.7515 468.316 94.5515C468.416 94.7015 468.616 94.8015 468.816 94.8015C468.916 94.8015 469.066 94.8015 469.166 94.7015C469.466 94.5515 469.516 94.1515 469.316 93.8515ZM164.066 76.7015C163.816 76.5015 163.416 76.5015 163.216 76.7515C160.916 79.1515 158.666 81.6515 156.416 84.1515C156.166 84.4515 156.216 84.8015 156.466 85.0515C156.566 85.1515 156.716 85.2015 156.866 85.2015C157.016 85.2015 157.216 85.1515 157.316 85.0015C159.566 82.5015 161.866 80.0015 164.116 77.6015C164.366 77.3515 164.316 76.9515 164.066 76.7015ZM457.566 77.5515C455.466 74.9015 453.266 72.3015 451.066 69.8015C450.866 69.5515 450.466 69.5515 450.216 69.7515C449.916 70.0015 449.916 70.4015 450.166 70.6515C452.316 73.1015 454.516 75.7015 456.566 78.3015C456.716 78.4515 456.866 78.5515 457.066 78.5515C457.216 78.5515 457.316 78.5015 457.466 78.4015C457.716 78.2015 457.766 77.8015 457.566 77.5515ZM178.166 62.4015C177.916 62.1515 177.566 62.1515 177.316 62.4015C174.966 64.6515 172.566 67.0515 170.166 69.4965C169.916 69.7515 169.916 70.1515 170.166 70.3515C170.266 70.5015 170.416 70.5515 170.616 70.5515C170.766 70.5515 170.916 70.5015 171.066 70.3515C173.416 67.9515 175.816 65.5515 178.166 63.3015C178.416 63.0515 178.416 62.6515 178.166 62.4015ZM444.266 62.4515C441.916 60.0515 439.516 57.6515 437.066 55.4015C436.816 55.1515 436.416 55.1515 436.166 55.4015C435.966 55.6515 435.966 56.0515 436.216 56.3015C438.666 58.5515 441.066 60.9515 443.366 63.3015C443.466 63.4015 443.616 63.5015 443.816 63.5015C443.966 63.5015 444.116 63.4515 444.216 63.3015C444.466 63.0515 444.466 62.6515 444.266 62.4515ZM193.066 48.9015C192.816 48.6515 192.416 48.6015 192.166 48.8515C190.366 50.4015 188.566 51.9515 186.816 53.5515C186.366 53.9015 185.966 54.3015 185.566 54.7015C185.266 54.9515 184.916 55.2015 184.616 55.5015C184.366 55.7465 184.366 56.1515 184.566 56.4015C184.716 56.5015 184.866 56.6015 185.066 56.6015C185.216 56.6015 185.366 56.5515 185.466 56.4515C186.016 55.9515 186.566 55.4515 187.116 54.9515L188.916 53.3015C190.266 52.0965 191.616 50.9515 192.966 49.8015C193.216 49.5515 193.266 49.1515 193.066 48.9015ZM429.566 48.7015C427.016 46.5015 424.366 44.4015 421.766 42.3515C421.466 42.1515 421.066 42.2015 420.866 42.4515C420.666 42.7515 420.716 43.1515 420.966 43.3465C423.616 45.3515 426.216 47.5015 428.766 49.6515C428.866 49.7515 429.016 49.8015 429.166 49.8015C429.316 49.8015 429.516 49.7015 429.616 49.5515C429.866 49.3015 429.816 48.9015 429.566 48.7015ZM208.766 36.4015C208.566 36.1515 208.166 36.0515 207.916 36.3015C205.266 38.2015 202.616 40.3015 199.916 42.4015C199.666 42.6515 199.616 43.0015 199.816 43.3015C199.966 43.4515 200.116 43.5515 200.316 43.5515C200.466 43.5515 200.566 43.5015 200.716 43.4015C203.366 41.2515 206.016 39.2015 208.666 37.3015C208.916 37.0965 208.966 36.7015 208.766 36.4015ZM413.616 36.4015C410.866 34.4515 408.066 32.6015 405.216 30.8015C404.966 30.6515 404.566 30.7015 404.366 31.0015C404.166 31.3015 404.266 31.7015 404.566 31.8515C407.366 33.6515 410.166 35.5015 412.916 37.4015C413.016 37.5015 413.166 37.5015 413.266 37.5015C413.466 37.5015 413.666 37.4515 413.766 37.2515C413.966 36.9515 413.916 36.6015 413.616 36.4015ZM225.466 25.2015C225.266 24.9515 224.866 24.8515 224.616 25.0015C221.766 26.7515 218.916 28.5515 216.116 30.4515C215.816 30.6515 215.766 31.0515 215.966 31.3515C216.066 31.5015 216.266 31.6015 216.466 31.6015C216.616 31.6015 216.716 31.5515 216.816 31.5015C219.616 29.5965 222.416 27.8015 225.266 26.1015C225.566 25.9015 225.616 25.5015 225.466 25.2015ZM396.616 25.6515C393.666 24.0015 390.666 22.3515 387.716 20.8465C387.416 20.7015 387.016 20.8465 386.866 21.1515C386.716 21.4515 386.866 21.8015 387.166 21.9965C390.116 23.5015 393.066 25.0515 395.966 26.7015C396.066 26.8015 396.166 26.8015 396.266 26.8015C396.516 26.8015 396.716 26.7015 396.816 26.5015C397.016 26.2015 396.916 25.8015 396.616 25.6515ZM243.116 15.7015C242.966 15.3515 242.616 15.2515 242.266 15.4015C239.316 16.8015 236.266 18.3465 233.316 19.9515C233.016 20.1515 232.916 20.5015 233.066 20.8015C233.166 21.0515 233.416 21.1515 233.616 21.1515C233.716 21.1515 233.816 21.1015 233.916 21.0515C236.866 19.4515 239.866 17.9515 242.816 16.5015C243.116 16.3515 243.266 16.0015 243.116 15.7015ZM378.616 16.5015C375.566 15.1515 372.466 13.8015 369.366 12.5515C369.066 12.4515 368.666 12.6015 368.566 12.9015C368.416 13.2465 368.566 13.6015 368.916 13.7515C372.016 14.9515 375.116 16.3015 378.116 17.6515C378.216 17.7015 378.266 17.7015 378.366 17.7015C378.616 17.7015 378.866 17.5515 378.966 17.3515C379.116 16.9965 378.966 16.6515 378.616 16.5015ZM260.966 7.8015C257.816 8.8515 254.616 10.0515 251.516 11.3015C251.166 11.4515 251.016 11.8015 251.166 12.0965C251.266 12.3515 251.516 12.5015 251.716 12.5015C251.816 12.5015 251.916 12.5015 251.966 12.4515C255.066 11.2015 258.216 10.0015 261.366 8.9515C261.666 8.8515 261.866 8.5015 261.716 8.2015C261.616 7.8515 261.266 7.7015 260.966 7.8015ZM359.916 9.0515C356.716 7.9515 353.516 6.9515 350.316 6.0515C349.966 5.9515 349.616 6.1515 349.516 6.5015C349.416 6.8015 349.616 7.1515 349.966 7.2515C353.116 8.1515 356.366 9.1515 359.516 10.2515H359.716C359.966 10.2515 360.216 10.1015 360.316 9.8515C360.416 9.4965 360.266 9.1515 359.916 9.0515ZM280.416 2.6015C277.116 3.2465 273.816 4.0015 270.616 4.9015C270.266 4.9515 270.066 5.3015 270.166 5.6515C270.216 5.9015 270.466 6.1015 270.766 6.1015H270.916C274.116 5.2515 277.416 4.4965 280.666 3.8515C280.966 3.8015 281.216 3.4515 281.166 3.1015C281.066 2.8015 280.766 2.5515 280.416 2.6015ZM340.516 3.6015C337.216 2.9015 333.866 2.2515 330.616 1.7515C330.266 1.7015 329.916 1.9515 329.866 2.2515C329.816 2.6015 330.066 2.9515 330.416 3.0015C333.666 3.5015 336.966 4.1015 340.266 4.8015C340.316 4.8515 340.366 4.8515 340.366 4.8515C340.666 4.8515 340.916 4.6515 341.016 4.3515C341.066 4.0015 340.866 3.7015 340.516 3.6015ZM300.466 0.151499H300.416C297.066 0.351499 293.666 0.651499 290.366 1.0515C290.016 1.1015 289.766 1.4015 289.816 1.7515C289.866 2.0515 290.116 2.3015 290.466 2.3015H290.516C293.816 1.9015 297.166 1.6015 300.516 1.4015C300.816 1.4015 301.116 1.1015 301.066 0.746499C301.066 0.451499 300.766 0.151499 300.466 0.151499ZM320.566 0.551499C317.266 0.251499 313.866 0.0514992 310.516 0.00149918C310.166 0.00149918 309.866 0.251499 309.866 0.601499C309.866 0.951499 310.116 1.2515 310.466 1.2515C313.816 1.3015 317.166 1.5015 320.466 1.8015H320.516C320.866 1.8015 321.116 1.5515 321.166 1.2015C321.166 0.846499 320.916 0.551499 320.566 0.551499Z" fill="#D8D5DB"/>
<path fill-rule="evenodd" clip-rule="evenodd" d="M500.317 135.051L493.817 146.351L492.967 147.801L483.562 164.051L481.517 167.651L421.217 272.051L411.217 289.351L401.217 272.051L365.467 210.151L359.967 200.651L347.712 179.401L319.017 129.701H503.417L500.317 135.051ZM314.717 127.201L347.712 184.351L357.112 200.651L362.617 210.151L398.362 272.051L411.217 294.351L424.117 272.051L483.762 168.701L485.862 165.101L502.167 136.901L506.667 129.051L507.067 128.401L507.767 127.201H314.717Z" fill="white"/>
<path fill-rule="evenodd" clip-rule="evenodd" d="M345.815 382.099C345.965 382.649 345.715 383.454 345.165 384.449C343.915 386.799 340.92 390.149 337.77 392.899C337.115 393.454 336.465 393.999 335.815 394.449C333.915 395.999 332.065 397.204 330.615 397.649C325.515 399.349 303.465 396.449 298.115 393.549C297.77 393.349 297.515 393.149 297.265 392.899C295.07 393.049 291.815 393.099 287.865 392.899C286.065 392.804 284.115 392.649 282.015 392.349C277.065 391.799 271.415 390.649 265.315 388.699C262.315 387.804 259.165 386.649 255.965 385.249C252.965 383.899 249.865 382.349 246.765 380.549C246.015 380.149 245.465 379.649 244.815 379.254C245.415 383.854 246.015 388.399 246.665 392.899C246.865 394.149 247.065 395.399 247.215 396.599C247.765 400.149 248.315 403.654 248.915 407.099C251.265 420.649 253.965 433.399 257.215 444.799C257.515 445.999 257.865 447.204 258.215 448.349C257.165 448.499 256.115 448.654 255.115 448.799C255.365 449.949 255.565 451.154 255.765 452.349C258.265 465.849 260.165 482.499 261.565 499.599C202.865 522.849 148.215 528.299 110.515 505.249C98.515 497.949 88.265 487.749 80.115 474.299C78.815 472.149 77.515 469.999 76.215 467.849C76.465 460.799 76.765 454.849 77.015 450.799C76.065 450.699 75.565 450.699 75.565 450.699C75.565 442.549 75.915 431.849 76.465 419.499C76.515 418.999 76.515 418.499 76.515 417.949C76.715 414.449 76.915 410.849 77.165 407.099C77.365 402.499 77.665 397.804 77.965 392.899C78.415 385.799 78.915 378.399 79.465 370.899C67.265 367.649 57.065 364.149 51.315 360.649C43.815 356.099 40.965 349.749 41.165 343.499C41.065 342.249 41.065 340.899 41.365 339.499C44.215 330.049 54.015 301.899 65.115 273.949L52.815 269.749C52.815 269.749 88.765 205.699 109.865 191.599C109.965 191.549 110.015 191.499 110.115 191.449C117.565 184.549 128.315 180.099 144.415 178.299C144.515 164.949 143.465 142.399 142.365 125.149C137.115 123.949 133.565 119.599 131.565 115.999C131.315 115.599 131.065 115.199 130.915 114.849C130.115 113.299 129.665 111.999 129.465 111.349C128.365 106.949 129.415 103.299 131.565 100.949C131.115 97.299 130.465 91.299 130.215 84.999C129.715 73.399 130.365 60.699 135.615 59.549C135.565 59.399 135.465 59.299 135.415 59.199C134.065 55.049 136.515 50.449 136.615 50.299L138.815 51.449C138.815 51.499 136.815 55.299 137.765 58.399C141.965 53.749 156.115 52.249 170.965 53.099C171.815 53.099 172.715 53.199 173.565 53.249C176.615 53.499 179.665 53.799 182.665 54.249C183.665 54.349 184.615 54.499 185.565 54.699C186.065 54.749 186.615 54.849 187.115 54.949C190.365 55.499 193.465 56.199 196.315 56.999C201.215 58.349 205.315 60.049 208.065 61.999C208.965 62.599 209.665 63.249 210.265 63.899C212.765 66.799 213.165 68.849 212.065 70.199C211.415 70.949 210.365 71.499 208.965 71.899C209.565 76.099 209.815 79.749 209.915 83.099C210.215 83.899 210.515 84.749 210.815 85.599C211.065 86.349 211.315 87.149 211.565 87.949C211.615 87.999 211.665 87.999 211.715 88.049C212.015 88.299 212.315 88.499 212.615 88.749C213.715 89.749 214.715 90.999 215.465 92.649L213.215 93.699C213.165 93.599 213.115 93.549 213.065 93.449C213.665 95.999 214.215 98.649 214.615 101.449C215.215 105.599 215.865 109.749 216.515 113.799C216.715 115.349 216.915 116.899 217.115 118.399C217.565 121.499 217.965 124.549 218.215 127.449C218.315 128.349 218.415 129.199 218.415 130.049C219.465 143.249 218.215 154.199 210.315 159.699C208.815 160.799 207.015 161.699 204.965 162.299C202.365 163.149 199.265 163.599 195.665 163.649C195.765 167.149 195.965 170.549 196.265 173.749C196.415 174.999 196.565 176.249 196.765 177.399C196.915 178.599 197.115 179.799 197.365 180.899C210.715 184.099 220.765 189.499 227.115 196.849C227.415 197.149 227.765 197.449 228.065 197.799C231.615 201.249 235.065 206.554 238.315 212.899C242.415 220.849 246.265 230.504 249.665 240.149C249.915 240.899 250.165 241.699 250.465 242.449C250.715 243.299 251.015 244.099 251.265 244.949C252.665 249.099 253.965 253.249 255.165 257.204C256.065 260.149 256.865 263.004 257.665 265.699C261.515 279.254 263.765 289.254 263.765 289.254L257.665 290.699L255.165 291.299L253.365 291.754C253.965 294.149 254.565 296.499 255.165 298.899C255.215 299.149 255.315 299.449 255.365 299.704C256.165 302.804 256.915 305.954 257.665 308.999C261.515 324.649 264.765 339.149 266.215 348.749C270.515 352.299 273.665 357.849 278.315 363.004C283.015 368.199 289.365 372.899 300.115 374.749C300.165 374.749 300.165 374.799 300.215 374.799C304.42 371.499 312.215 367.604 316.965 366.154C317.615 365.999 318.17 365.849 318.665 365.749C319.065 365.649 319.42 365.599 319.715 365.599C321.72 365.199 322.015 365.349 323.215 366.099C323.665 366.449 324.265 366.899 325.215 367.449C329.115 369.749 333.215 371.899 336.765 373.999C341.165 376.554 344.615 378.999 345.615 381.599C345.715 381.754 345.765 381.949 345.815 382.099Z" fill="#D1CDD3"/>
<path fill-rule="evenodd" clip-rule="evenodd" d="M360.669 367.426C357.104 365.292 358.144 365.021 354.114 365.762C349.764 366.566 340.404 371.057 335.669 374.797C335.619 374.792 335.584 374.766 335.534 374.757C314.094 371.081 310.324 355.917 301.654 348.737C296.849 317.257 272.639 231.587 272.639 231.587L236.159 245.152C241.474 281.247 262.864 349.897 268.414 365.387C269.324 367.262 270.499 368.751 271.814 369.962C273.634 373.807 276.904 377.517 282.189 380.572C304.059 393.217 324.759 393.392 332.679 392.887C332.934 393.142 333.224 393.362 333.554 393.547C338.919 396.477 360.929 399.346 366.069 397.661C371.294 395.947 381.994 385.117 381.224 382.117C379.974 377.217 369.604 372.777 360.669 367.426Z" fill="#FFAD69"/>
<path fill-rule="evenodd" clip-rule="evenodd" d="M239.904 208.447C229.604 231.597 233.389 304.952 233.389 304.952L299.214 289.262C299.214 289.262 267.064 147.377 239.904 208.447Z" fill="#377ADB"/>
<path fill-rule="evenodd" clip-rule="evenodd" d="M295.615 484.399C284.22 490.104 272.815 495.199 261.565 499.599C202.865 522.849 148.22 528.299 110.515 505.249C111.065 483.599 111.815 461.049 112.415 450.799C112.515 449.599 112.615 448.549 112.665 447.699L132.865 447.299H133.765L133.815 447.249L243.115 445.104H243.22L250.215 444.949L257.215 444.799L289.515 444.149C289.87 445.649 290.215 447.249 290.515 448.854C292.615 459.054 294.265 471.299 295.615 484.399Z" fill="#232323"/>
<path fill-rule="evenodd" clip-rule="evenodd" d="M191.55 177.429C152.28 178.724 139.005 191.979 132.235 214.904C124.545 240.934 111.005 398.154 111.005 450.689C111.005 450.689 228.53 459.019 293.635 448.344C273.22 379.389 271.015 255.409 270.605 218.469C270.3 190.759 241.33 175.784 191.55 177.429Z" fill="#4D8DFF"/>
<mask id="mask1" mask-type="alpha" maskUnits="userSpaceOnUse" x="0" y="0" width="533" height="521">
<path fill-rule="evenodd" clip-rule="evenodd" d="M0 520.035H532.615V0H0V520.035Z" fill="white"/>
</mask>
<g mask="url(#mask1)">
<path fill-rule="evenodd" clip-rule="evenodd" d="M197.965 314.3H255.165V244.95H197.965V314.3ZM195.465 316.8H257.665V242.45H195.465V316.8Z" fill="white"/>
<path fill-rule="evenodd" clip-rule="evenodd" d="M226.145 113.139C230.01 110.224 250.19 112.869 244.38 71.784C242.26 56.794 228.185 66.799 218.22 68.799C208.25 70.799 214.59 113.879 214.59 113.879L226.145 113.139Z" fill="#232323"/>
<path fill-rule="evenodd" clip-rule="evenodd" d="M175.901 103.298C177.576 114.188 180.926 173.103 179.531 186.788C178.136 200.473 244.316 204.378 235.656 189.303C227.001 174.223 233.146 124.238 233.146 124.238L175.901 103.298Z" fill="#FFAD69"/>
<path fill-rule="evenodd" clip-rule="evenodd" d="M180.48 104.963L233.135 124.243C233.135 124.243 229.58 153.353 231.725 173.853C191.575 170.748 181.27 120.038 180.595 110.273C180.48 108.433 180.425 106.658 180.48 104.963Z" fill="#D88344"/>
<path fill-rule="evenodd" clip-rule="evenodd" d="M250.041 101.443C254.921 135.077 263.206 168.618 222.436 163.092C181.661 157.573 175.331 105.298 175.446 95.4425C176.081 42.8275 240.446 35.3025 250.041 101.443Z" fill="#FFAD69"/>
<path fill-rule="evenodd" clip-rule="evenodd" d="M245.693 63.8865C236.098 52.7415 182.153 48.5365 173.223 58.4065C172.243 55.3065 174.243 51.4965 174.263 51.4615L172.063 50.2765C171.958 50.4665 169.523 55.0615 170.848 59.1915C170.893 59.3215 171.003 59.4115 171.048 59.5415C161.178 61.7165 167.478 104.597 167.478 104.597L179.033 103.857C182.898 100.947 196.313 80.4565 199.268 68.0915C220.393 71.6665 257.888 78.0515 245.693 63.8865Z" fill="#232323"/>
<path fill-rule="evenodd" clip-rule="evenodd" d="M239.956 368.613C235.826 368.843 219.801 371.628 214.176 370.323C195.271 365.908 146.551 344.053 120.326 331.838C136.461 296.813 160.211 234.823 160.211 234.823L122.866 223.863C105.536 255.968 81.6005 323.773 76.7805 339.508C76.5105 340.918 76.4905 342.243 76.5755 343.513C76.4055 349.738 79.2555 356.093 86.7405 360.653C107.501 373.298 185.816 385.568 207.506 387.963C207.906 388.773 208.436 389.508 209.296 389.993C214.601 392.973 238.741 395.203 243.706 396.083C249.931 397.183 268.826 398.783 268.011 396.253C266.676 392.108 259.671 367.508 239.956 368.613Z" fill="#FFAD69"/>
<path fill-rule="evenodd" clip-rule="evenodd" d="M145.28 191.618C124.215 205.698 88.2555 269.743 88.2555 269.743L152.29 291.618C152.29 291.618 200.85 154.478 145.28 191.618Z" fill="#4D8DFF"/>
<path fill-rule="evenodd" clip-rule="evenodd" d="M215.71 99.78C215.58 101.42 216.465 102.825 217.69 102.925C218.92 103.02 220.02 101.775 220.155 100.135C220.29 98.5 219.4 97.09 218.17 96.99C216.945 96.895 215.84 98.14 215.71 99.78Z" fill="#232323"/>
<path fill-rule="evenodd" clip-rule="evenodd" d="M241.682 100.469C241.552 102.109 242.437 103.514 243.662 103.614C244.892 103.709 245.992 102.464 246.127 100.824C246.257 99.1885 245.367 97.7785 244.142 97.6785C242.917 97.5835 241.812 98.8285 241.682 100.469Z" fill="#232323"/>
<path fill-rule="evenodd" clip-rule="evenodd" d="M209.321 90.576L207.226 89.211C211.646 82.441 219.066 84.011 219.386 84.081L218.841 86.521C218.601 86.471 212.776 85.281 209.321 90.576Z" fill="#232323"/>
<path fill-rule="evenodd" clip-rule="evenodd" d="M248.637 93.6935C245.992 87.9385 240.052 88.2535 239.817 88.2785L239.642 85.7835C239.962 85.7635 247.532 85.2985 250.907 92.6485L248.637 93.6935Z" fill="#232323"/>
<path fill-rule="evenodd" clip-rule="evenodd" d="M224.054 130.747C219.829 130.747 211.704 129.547 206.659 121.157L208.799 119.867C214.914 130.037 225.884 128.182 226.349 128.097L226.804 130.552C226.764 130.562 225.709 130.747 224.054 130.747Z" fill="#232323"/>
<path fill-rule="evenodd" clip-rule="evenodd" d="M243.278 119.355L231.138 119.19L231.173 116.69L239.928 116.81L234.523 98.375L236.918 97.67L243.278 119.355Z" fill="#D88344"/>
<path fill-rule="evenodd" clip-rule="evenodd" d="M185.788 107.578C189.468 115.878 194.083 123.908 182.518 125.398C170.953 126.893 165.573 113.908 164.918 111.363C161.418 97.7875 178.543 91.2575 185.788 107.578Z" fill="#FFAD69"/>
<path fill-rule="evenodd" clip-rule="evenodd" d="M498.891 407.084H20.451C16.546 407.084 13.351 403.889 13.351 399.984C13.351 396.079 16.546 392.884 20.451 392.884H498.891C502.796 392.884 505.991 396.079 505.991 399.984C505.991 403.889 502.796 407.084 498.891 407.084Z" fill="white"/>
<path fill-rule="evenodd" clip-rule="evenodd" d="M197.512 407.084H16.9015C12.9965 407.084 9.80151 403.889 9.80151 399.984C9.80151 396.079 12.9965 392.884 16.9015 392.884H197.512C201.417 392.884 204.612 396.079 204.612 399.984C204.612 403.889 201.417 407.084 197.512 407.084Z" fill="#D8D5DB"/>
<path fill-rule="evenodd" clip-rule="evenodd" d="M475.464 381.611H327.054C321.389 381.611 317.629 377.011 318.659 371.341L334.844 282.336C335.879 276.661 341.309 272.066 346.984 272.066H495.389C501.059 272.066 504.819 276.661 503.789 282.336L487.604 371.341C486.569 377.011 481.139 381.611 475.464 381.611Z" fill="#2B2B2B"/>
<path fill-rule="evenodd" clip-rule="evenodd" d="M479.091 381.611H330.681C325.016 381.611 321.256 377.011 322.286 371.341L338.471 282.336C339.501 276.661 344.936 272.066 350.606 272.066H499.011C504.686 272.066 508.446 276.661 507.416 282.336L491.226 371.341C490.196 377.011 484.761 381.611 479.091 381.611Z" fill="#232323"/>
<path fill-rule="evenodd" clip-rule="evenodd" d="M429.565 344.848H393.62L400.165 308.853H436.12L429.565 344.848ZM398.065 306.353L390.615 347.348H431.615L439.115 306.353H398.065Z" fill="white"/>
<path fill-rule="evenodd" clip-rule="evenodd" d="M301.025 384.457C301.025 389.092 304.82 392.887 309.46 392.887H464.705C469.345 392.887 473.14 389.092 473.14 384.457H301.025Z" fill="#232323"/>
<path fill-rule="evenodd" clip-rule="evenodd" d="M255.922 384.457C255.922 389.092 259.712 392.887 264.352 392.887H325.402C330.042 392.887 333.837 389.092 333.837 384.457H255.922Z" fill="#2B2B2B"/>
<path fill-rule="evenodd" clip-rule="evenodd" d="M426.45 108.227C421.195 108.227 416.935 112.492 416.935 117.747H435.97C435.97 112.492 431.71 108.227 426.45 108.227Z" fill="#377ADB"/>
<path fill-rule="evenodd" clip-rule="evenodd" d="M426.459 108.229V200.66C426.459 205.924 422.189 210.149 416.924 210.149H347.719V117.769C347.719 112.499 351.984 108.229 357.214 108.229H426.459Z" fill="#4D8DFF"/>
<path fill-rule="evenodd" clip-rule="evenodd" d="M407.431 200.659L338.191 200.649C338.191 205.904 342.456 210.164 347.716 210.164L416.921 210.149C411.661 210.149 407.431 205.924 407.431 200.659Z" fill="#6EA9FF"/>
<path fill-rule="evenodd" clip-rule="evenodd" d="M358.07 123.75H416.12V121.25H358.07V123.75Z" fill="white"/>
<path fill-rule="evenodd" clip-rule="evenodd" d="M358.07 133.22H416.12V130.72H358.07V133.22Z" fill="white"/>
<path fill-rule="evenodd" clip-rule="evenodd" d="M358.07 142.69H416.12V140.19H358.07V142.69Z" fill="white"/>
<path fill-rule="evenodd" clip-rule="evenodd" d="M358.07 152.16H416.12V149.66H358.07V152.16Z" fill="white"/>
<path fill-rule="evenodd" clip-rule="evenodd" d="M358.07 161.63H416.12V159.13H358.07V161.63Z" fill="white"/>
<path fill-rule="evenodd" clip-rule="evenodd" d="M358.07 171.1H416.12V168.6H358.07V171.1Z" fill="white"/>
<path fill-rule="evenodd" clip-rule="evenodd" d="M358.07 180.57H416.12V178.07H358.07V180.57Z" fill="white"/>
<path fill-rule="evenodd" clip-rule="evenodd" d="M358.07 190.04H416.12V187.54H358.07V190.04Z" fill="white"/>
<path fill-rule="evenodd" clip-rule="evenodd" d="M523.183 157.893C509.933 171.143 488.443 171.143 475.188 157.893C461.938 144.638 461.938 123.153 475.188 109.898C488.443 96.6425 509.933 96.6425 523.183 109.898C536.433 123.153 536.433 144.638 523.183 157.893Z" fill="#FFC84D"/>
<path fill-rule="evenodd" clip-rule="evenodd" d="M499.189 133.896L526.154 160.861C511.364 175.656 487.009 175.656 472.219 160.861C465.884 154.521 461.979 146.151 461.194 137.221L499.189 133.896Z" fill="#232323"/>
<path fill-rule="evenodd" clip-rule="evenodd" d="M499.189 133.896L461.309 138.311C460.809 134.036 461.039 129.706 461.989 125.501C462.934 121.301 464.584 117.291 466.874 113.641L499.189 133.896Z" fill="white"/>
<path fill-rule="evenodd" clip-rule="evenodd" d="M333.071 84.7995H304.321C300.611 84.7995 297.571 81.7645 297.571 78.0495V49.3045C297.571 45.5945 300.611 42.5545 304.321 42.5545H333.071C336.781 42.5545 339.821 45.5945 339.821 49.3045V78.0495C339.821 81.7645 336.781 84.7995 333.071 84.7995Z" fill="#232323"/>
<path fill-rule="evenodd" clip-rule="evenodd" d="M324.667 93.2025H295.917C292.207 93.2025 289.167 90.1675 289.167 86.4525V57.7075C289.167 53.9975 292.207 50.9575 295.917 50.9575H324.667C328.377 50.9575 331.417 53.9975 331.417 57.7075V86.4525C331.417 90.1675 328.377 93.2025 324.667 93.2025Z" fill="#FF4E4A"/>
</g>
</svg>
